<svg version="1.2" xmlns="http://www.w3.org/2000/svg" viewBox="0 0 1920 1494" width="200" height="156">
	<title>magic-wand-silhouette-2993fc-original</title>
	<style>
		.s0 { fill: #2596be } 
		.s1 { fill: #ffffff;stroke: #ffffff;stroke-miterlimit:100 } 
		.s2 { fill: none;stroke: #ffffff;stroke-miterlimit:100;stroke-width: 10 } 
	</style>
	<path class="s0" d="m707 2.2c-0.5 1.3-2 5.4-3.2 9.3l-2.3 7-9 3c-11.9 4-12.1 5.2-2 12.3l7.4 5.3 0.3 9.6c0.4 13 1.1 13.4 11.2 5.9l7.8-5.8 9.1 3.2c8.4 3 9.1 3.1 10.3 1.6 1-1.4 0.7-3.3-1.8-10.6l-2.9-8.9 5.7-7.6c7.6-10.1 7.2-10.9-5.9-11.3l-9.6-0.3-5.3-7.4c-5.4-7.9-8.1-9.3-9.8-5.3zm-302.3 8.2c-0.8 0.8-2.5 5.1-3.7 9.6l-2.4 8.1-9 2.8c-8.1 2.5-9.1 3.1-9.1 5.1 0 1.8 1.7 3.6 7.2 7.5l7.2 5 0.1 9.8c0 13.4 0.5 13.5 13.5 4.2l5.6-3.9 8.3 2.8c8.6 3 11.6 3 11.6-0.1 0-1-1.2-5.3-2.6-9.6l-2.6-7.8 2.6-3.7c1.5-2 4-5.5 5.7-7.8 4.7-6.4 3.6-7.4-8-7.4h-9.7l-5.8-8c-3.1-4.4-6.1-8-6.6-8-0.5 0-1.5 0.6-2.3 1.4zm532.1 9.6c-4 3.3-7.5 6-7.8 6-0.3 0-4.3-1.1-9-2.3-4.7-1.3-9.1-2.2-9.7-2-2 0.7-1.6 3.5 1.8 12l3.1 7.9-5.2 8.2c-7.1 11.1-6.8 11.7 5.8 10.8l9.9-0.7 5.4 7c8 10.4 9.7 10.4 12.1 0.3 2.8-11.6 2.7-11.4 11.8-14.7 8.6-3.1 11-5.3 8.6-7.7-0.8-0.8-4.6-3.4-8.5-5.7l-7.1-4.3v-9.4c0-8.2-0.2-9.5-1.9-10.4-1.6-0.8-3.1 0-9.3 5zm-122.4 1.8c-0.6 0.4-2.4 4.7-4 9.6l-2.9 8.9-9.3 2.9c-8.3 2.6-9.3 3.1-9 5.1 0.2 1.3 3 4 7.5 7.2l7.2 5 0.3 10c0.3 9.4 0.4 10 2.5 10.3 1.4 0.2 4.6-1.5 8.9-4.7 3.7-2.8 7.2-5.1 7.9-5.1 0.7 0 4.3 1.1 8.1 2.5 7.6 2.8 11 3.1 11.7 1.2 0.2-0.6-0.9-5.1-2.5-10l-2.9-8.7 5.6-7.7c3.1-4.2 5.4-8.4 5.3-9.2-0.3-1.3-2.3-1.7-10.6-2.1l-10.2-0.5-5.3-7.4c-5.4-7.7-6.4-8.6-8.3-7.3zm-345.4 43.2c-0.7 0.4-4.4 6.3-8.4 13.1l-7.1 12.4-9.5 0.8c-18 1.4-20.5 2-20.8 4.4-0.3 2 2.1 4.9 15.6 19.4l3.4 3.7-3.3 14c-3.2 14.1-3.3 17.2-0.3 17.2 0.9 0 7.2-2.5 14-5.5 6.9-3 12.8-5.5 13.2-5.5 0.4 0 6.3 3.4 13.1 7.5 6.8 4.1 12.7 7.5 13.1 7.5 2.6 0 2.9-3.1 1.4-15.9-0.8-7.3-1.4-14.1-1.2-15 0.2-1 5.1-5.9 11.1-11 6.5-5.7 10.7-10 10.7-11.1 0-2.1-1.3-2.6-18-6.1-5.8-1.2-11-2.5-11.6-3-0.5-0.4-3.4-6.7-6.4-13.8-5.3-12.9-6.5-14.7-9-13.1zm128.2 6.5c-3.5 3-6.8 5.5-7.5 5.5-0.7 0-4.1-0.9-7.5-2-7.6-2.4-11.1-2.5-11.8-0.5-0.3 0.8 0.9 5.3 2.6 10l3.3 8.5-5.2 7.8c-7.1 10.9-6.7 11.7 5.9 10.8l9.7-0.6 6.2 7.6c4.1 4.9 6.8 7.4 7.9 7.2 1.2-0.2 2.4-3 4.2-9.7l2.5-9.4 8-2.9c12.9-4.7 13.2-6.1 2.5-12.7-3.9-2.3-7.3-4.7-7.6-5.3-0.3-0.5-0.9-5.1-1.3-10.1-0.6-8.9-0.7-9.2-3.1-9.4-1.8-0.2-4.3 1.3-8.8 5.2zm-267.2 11.5c-4.4 3.7-7.9 5.9-8.9 5.6-13.3-4-16.6-4.6-18-3.1-1.3 1.3-1 2.5 2 10.2l3.5 8.8-5.4 8.2c-7.2 10.9-6.7 11.6 6.7 10.8l9.6-0.6 5 6.6c8.3 11 9.6 10.8 12.8-2.1l2.2-8.9 8-3c4.4-1.6 8.6-3.4 9.3-3.8 2.6-1.7 0.9-4-6.7-8.8l-7.9-5.1-0.7-8.6c-0.6-8.8-1.3-11.3-3.2-11.9-0.6-0.2-4.3 2.4-8.3 5.7zm393.8 4.7c-5.1 4.2-10 8.2-10.9 9-1.5 1.2-3.3 1-14.1-2.1-13.8-4-16.6-4.3-17.4-2.1-0.4 0.8 1.7 7.4 4.6 14.5l5.3 13.1-7.7 11.5c-4.9 7.4-7.6 12.3-7.4 13.7 0.3 2.5 2 2.7 19.8 1.5l10.5-0.7 8.9 11.5c4.9 6.2 9.5 11.4 10.1 11.4 2.3 0 3.4-2.5 6.6-15.5 1.8-7.2 3.7-13.3 4.2-13.6 0.5-0.4 6.7-2.8 13.8-5.4 17-6.2 17-6.4 1-16.4-13.7-8.6-13.1-7.5-13.1-24.4 0-10-0.9-13.7-3.5-13.7-0.8 0-5.6 3.4-10.7 7.7zm-562 18.4l-6.3 7-8.8-1.1c-4.8-0.7-9.4-0.9-10.2-0.6-2.4 0.9-1.7 3.7 2.9 11.6l4.4 7.5-3.9 7.7c-6.2 12.4-5.4 13.6 7.5 10.7l8.9-2 6.7 6.6c3.8 3.6 7.5 6.5 8.4 6.5 2.2 0 3.2-3 4.1-12.2l0.7-7.7 8.4-4.6c11.2-6.1 11.1-7.2-0.3-12.8l-8.8-4.2-1.6-8.6c-0.9-4.7-1.9-9.1-2.3-9.8-1.4-2.2-3.5-1-9.8 6zm78.5 12.7c-0.6 0.4-4.5 9.2-8.8 19.7-4.2 10.4-8 19.3-8.4 19.8-0.4 0.4-9.7 2.8-20.7 5.3-19 4.3-23.4 5.9-22 8.3 0.5 0.7 28.7 24.9 32.5 27.7 0.2 0.2-0.4 9-1.4 19.6-2.3 25.2-2.2 23.9-0.4 25.1 1.3 0.8 5.1-1.1 19-9.8 9.6-5.9 18.1-11 18.9-11.2 0.9-0.2 9.9 3.2 20.2 7.6 18.8 8.2 21.2 8.9 22.3 7 0.4-0.6-1.6-10.5-4.5-22l-5.2-20.9 5.4-6.3c3-3.4 9.4-10.7 14.1-16.1 4.8-5.4 8.7-10.5 8.7-11.3 0-2.3-3.7-2.9-24-4.2-10.7-0.7-19.8-1.5-20.2-1.7-0.4-0.2-5.4-8.5-11.3-18.3-5.8-9.9-11.2-18.2-11.9-18.4-0.7-0.3-1.7-0.2-2.3 0.1zm-129.7 73.4c-0.8 1.3-5 6-9.3 10.6l-7.8 8.3-13.9-2.1c-13.6-2-16.6-1.8-16.6 1.1 0 0.5 3.2 6.5 7 13.3l7.1 12.3-6.1 12.3c-6.2 12.6-7 15.4-4.7 16.3 0.7 0.3 7.6-0.8 15.3-2.3l13.9-2.8 10.1 9.9c5.6 5.4 10.5 9.9 11 9.9 2.7-0.1 3.5-2.5 4.9-15.5 0.9-7.7 2-14.3 2.3-14.7 0.4-0.3 6-3.5 12.6-6.9 6.5-3.5 12.1-7 12.4-7.7 0.8-2.2-1.6-3.8-13.8-9.2-6.3-2.9-11.8-5.5-12.2-5.8-0.4-0.4-1.6-6.1-2.8-12.7-2.4-14.1-3.3-16.5-5.9-16.5-1 0-2.6 1-3.5 2.2zm140.8 77.6c-0.6 0.4-1.7 4.1-2.3 8.2-1.8 11.2-1.5 10.7-10.8 15-11.1 5.2-11.1 6.7 0.3 12.7l8 4.3 1.3 9.1c0.6 5.1 1.4 9.6 1.7 10.1 1.1 1.8 3.5 0.5 10.3-5.8l7.2-6.6 8.8 1.7c12.8 2.5 13.3 1.8 7.1-10.4l-3.9-8 4.4-8c2.5-4.5 4.5-8.5 4.5-9 0-2.6-2.8-3-11.5-1.6l-9 1.4-6.5-6.9c-6.5-7-7.5-7.6-9.6-6.2zm-230.2 15.4c-0.5 0.7-1.6 5.1-2.3 9.8l-1.4 8.5-8.5 4.3c-11.4 5.8-11.4 7.2-0.3 13l8.2 4.2 0.6 5.8c1.9 16.7 2.8 17.3 12.4 7.8l6.7-6.6 8.7 1.6c13.3 2.5 14 1.5 7.8-10.6l-3.9-7.5 4.7-8.7c4.1-7.8 4.4-8.8 3.1-10.2-1.4-1.4-2.4-1.4-10.5 0l-9 1.6-6.6-7.1c-6.9-7.3-7.9-8-9.7-5.9zm136 19c-0.6 0.7-1.6 5-2.3 9.5-0.7 4.5-1.5 8.6-1.8 9-0.3 0.4-4.3 2.6-8.9 4.8-10.8 5.1-10.7 6.4 0.5 12.4l8.2 4.3 0.7 5.7c2 16.8 2.7 17.3 12.4 7.6l6.7-6.7 8.5 1.8c13.2 2.7 14.1 1.5 7.9-10.6l-3.8-7.4 4.6-8.7c5.9-11.3 5.6-11.8-7.2-10.1l-9.2 1.2-6.7-7c-7-7.3-7.9-7.8-9.6-5.8zm118.8 52.3c-9.6 6.8-18 12.4-18.6 12.4-0.6 0.1-10.2-3.3-21.3-7.4-11.1-4.1-20.9-7.5-21.7-7.5-0.8 0-1.7 0.7-2 1.5-0.3 0.8 2.4 11.1 6 23l6.6 21.5-14 17.6c-7.7 9.7-14 18.3-14 19 0 2.8 4.2 3.4 25.3 3.4h21.4l12.7 19.1c10.6 15.9 13 19 14.9 18.7 1.8-0.3 3.2-3.3 9.4-21.3 4.1-11.5 7.7-21.3 8.1-21.6 0.4-0.4 9.9-3.2 21.1-6.3 20.3-5.6 23.1-6.7 23.1-9.1 0-0.7-8.1-7.3-18-14.6l-18-13.4 0.2-23.5c0.3-22.9 0.2-23.5-1.7-23.7-1.2-0.2-9 4.7-19.5 12.2zm191.3-3.3c-0.4 0.7-1.9 7.5-3.3 15.1l-2.5 13.8-12 5.5c-13 6-15.1 7.5-14.2 9.8 0.3 0.8 5.4 3.9 11.4 7 5.9 3 11.6 6.1 12.7 6.9 1.5 1.1 2.2 4 3.5 15.2 2.2 18.9 2.2 18.9 15.5 5.6l10.4-10.4 14.2 2.7c19.7 3.8 19.6 3.9 11-13.5l-6.5-13 3-5.7c1.7-3.1 4.9-8.9 7-12.9 3.6-6.4 3.8-7.4 2.5-8.7-1.3-1.3-3-1.3-15.5 0.6l-14 2.1-7.5-7.9c-4.1-4.3-8.7-9.1-10.2-10.6-2.9-3.1-4.3-3.5-5.5-1.6zm-72.5 34.2c-0.7 0.7-3.7 3.9-6.7 7.1l-5.4 5.7-7.4-1.1c-14.6-2.2-15.3-1.3-8.7 10.2l4.6 8-4.2 8.9c-3.8 7.8-4.1 9.1-2.8 10.4 1.2 1.3 2.3 1.3 8.4-0.1 3.8-0.8 7.9-1.8 9.1-2 1.7-0.4 3.9 1 9.3 6.2 8.7 8.1 10.1 7.9 11.3-1.8 1.7-13.4 1-12.2 8.7-15.9 7.8-3.8 10.3-6 9.5-8.2-0.3-0.8-4.3-3.1-8.8-5.1l-8.2-3.5-1.8-8.8c-2.2-10.9-3.8-13.2-6.9-10zm-352.4 6c-0.3 0.7 0 5.9 0.5 11.6 0.6 5.6 1.1 10.8 1.1 11.4 0 0.7-4 4.6-9 8.7-12.6 10.4-12.4 10.9 5.5 15.1l9.9 2.3 4.1 10.2c2.3 5.7 4.6 10.8 5.2 11.4 2.1 2.1 4.1 0.1 9.9-9.8 3.1-5.4 5.8-9.9 5.9-10 0-0.1 5.3-0.6 11.7-1.2 6.4-0.5 12.1-1.2 12.7-1.5 2.2-1.4 0.9-3.8-6.8-12.4l-7.9-8.8 2.9-11.4c1.6-6.3 2.7-12 2.4-12.7-0.8-2.2-3.8-1.5-14.4 3.2l-10.1 4.5-9.7-6c-9.8-6.1-12.9-7.1-13.9-4.6zm538.4 12.6l-6.5 7-6.9-1c-14.9-2.1-15.6-1.3-9.3 10.6l4.4 8.3-3.7 7.6c-4 7.9-4.6 11.1-2.6 11.7 0.7 0.3 5.3-0.4 10.2-1.4l8.9-1.8 6.8 6.5c6.5 6.3 9.5 7.8 10.4 5.2 0.3-0.6 1-5.2 1.7-10.2l1.3-8.9 8.3-4.4c11.1-5.9 11-7.1-0.7-12.4l-8.9-4.1-1.2-8.1c-1.4-9-2.4-11.6-4.5-11.6-0.7 0-4.2 3.2-7.7 7zm69.5 11.2c-0.6 0.7-2.5 10.3-4.3 21.3-1.8 11-3.6 20.9-4 22-0.5 1.4-6.9 4.9-20.8 11.4-18.6 8.6-22.1 10.9-20.7 13.1 0.3 0.5 9.4 5.5 20.3 11.1 10.8 5.6 19.8 10.3 20 10.4 0.2 0.2 1.5 10.3 3 22.5 2.2 17.5 3.1 22.5 4.4 23.3 1.9 1.3 7.7-3.5 24.1-20.1l10.8-10.8 22.2 4.3c19.7 3.8 22.3 4.1 23.7 2.8 1.3-1.4 0.3-3.8-8.8-22l-10.2-20.5 11-19.9c11-19.8 12.1-23.1 7.8-23.1-1 0-10.9 1.3-22 3-11 1.6-20.6 3-21.3 3-0.7 0-8.1-7.4-16.5-16.5-8.4-9.1-15.8-16.5-16.5-16.5-0.7 0-1.7 0.6-2.2 1.2zm-488 47.7l-6.8 7-5-0.9c-7.5-1.3-14.3-1.2-14.8 0.2-0.3 0.7 1.6 5.1 4.1 9.7l4.5 8.4-3.7 7.4c-3.9 8-4.5 11-2 12 0.8 0.3 5.3-0.2 10-1.1l8.6-1.7 6.8 6.5c3.7 3.6 7.2 6.6 7.8 6.6 2.1 0 3.2-3 4.2-11.6 0.5-4.9 1.3-9 1.8-9.2 3.8-1.2 15.8-9.1 16-10.5 0.3-1.4-1.6-2.7-8.6-5.9l-9-4.2-1.2-7.5c-1.6-9.5-2.6-12.1-4.4-12.1-0.9 0-4.6 3.1-8.3 6.9zm274.9-5c-0.7 0.4-1.7 3.6-2.2 7.2-2 12.6-1.3 11.7-10.8 16.2-11.4 5.5-11.4 6.6-0.2 12.6l8.5 4.6 1 8.5c1.6 13.5 2.7 13.9 12.3 4.6l6.7-6.4 9.2 1.6c12.6 2.2 13 1.8 7.4-9.6l-4.3-8.8 4.6-8.2c2.5-4.5 4.6-8.3 4.6-8.6 0-0.2-0.6-1.1-1.4-1.9-1.2-1.2-2.7-1.2-10.6 0.1l-9.1 1.4-5.6-6.1c-6.1-6.8-8.3-8.3-10.1-7.2zm367.6 54.2l-6.4 7-8.7-1.1c-4.8-0.7-9.4-0.9-10.2-0.6-2.4 0.9-1.7 4 2.5 11.4 2.2 3.8 4 7.4 4 8.1 0 0.6-1.6 4.3-3.5 8.1-3.7 7.4-4.3 10.5-2.2 11.3 0.8 0.3 5.4-0.3 10.3-1.3l8.9-1.9 6.6 6.6c8.2 8.1 10.1 8.1 11.2 0.3 2.3-15.6 1.3-13.8 10.5-18.7 11-6 10.9-7.1-0.6-12.4l-8.9-4-1.6-9.1c-1.4-8.1-2.6-10.7-4.9-10.8-0.3 0-3.5 3.2-7 7.1zm-470.8 8l-6.7 7.2-9.1-1.2c-5-0.7-9.6-1-10.2-0.6-1.9 1.1-1 4 3.3 11.5l4.4 7.4-3.9 8.2c-2.1 4.5-3.8 8.9-3.8 9.7 0 2.5 2.6 2.7 11.7 0.7l8.8-1.9 6.5 6.5c9.6 9.4 11.1 8.7 12.4-5.8l0.8-7.7 8.1-4.4c6.6-3.6 8.2-4.9 8.2-6.7 0-2-1.4-3-8.5-6.1l-8.5-3.8-1.7-9.3c-0.9-5.1-1.7-9.4-1.7-9.4-0.1-0.1-0.8-0.5-1.7-0.8-1.2-0.5-3.6 1.4-8.4 6.5zm352.3 30.7c-4.7 0.7-7.7 7.7-5.3 12.2 0.5 1 6.5 6.1 13.2 11.2 6.8 5.2 114 87.3 238.3 182.4 124.3 95.2 291.5 223.1 371.5 284.4 246 188.3 285.7 218.7 437 334.5 80.6 61.6 147.9 113.1 149.7 114.3 3.8 2.7 5.3 2.7 8.5 0.3 4.4-3.5 20.8-26 20.8-28.7 0-1.4-1.4-3.9-3.2-5.8-1.8-1.9-122.8-91.5-268.8-199.2-146-107.7-298.8-220.4-339.5-250.4-40.7-30-134.3-99.1-208-153.5-73.7-54.4-167.5-123.6-208.5-153.9-104.7-77.2-174.6-128.8-187.6-138.4-11.6-8.5-14.5-10-18.1-9.4zm-142.3 8.3l-6.5 7.1-8.7-1.2c-9-1.3-11.8-1-11.8 1.3 0 0.8 2 5 4.5 9.3l4.4 7.9-3.9 8.3c-2.2 4.6-4 8.7-4 9.1 0 2.6 2.8 2.9 11.5 1.1l9-1.8 7.3 6.6c9.5 8.4 10.3 8.1 11.7-4.7l1-9.2 8.3-4.5c11-6 10.9-7.2-0.2-12.5-4.8-2.2-8.7-4.7-9-5.7-0.2-0.9-1-4.9-1.6-8.7-1.3-7.2-2.4-9.5-4.4-9.5-0.6 0-4.1 3.2-7.6 7.1zm104.1 25.3c-0.6 0.8-1.6 4.2-2.2 7.7-0.5 3.5-1.2 7.4-1.5 8.7-0.3 1.7-2.5 3.3-8.6 6.3-8.3 3.9-10.2 5.6-9 7.5 0.4 0.6 4.4 3.1 8.9 5.5l8.2 4.4 0.7 7.5c1.3 14.3 2.8 15 12.4 5.5l6.6-6.6 7.3 1.6c14.3 3 15.2 1.9 9.3-10.1l-4.1-8.3 4.4-7.9c2.5-4.4 4.5-8.5 4.5-9 0-2.4-3.4-2.8-11.9-1.5l-8.8 1.4-6.8-7c-3.8-3.9-7.1-7.1-7.5-7.1-0.4 0-1.3 0.6-1.9 1.4z"/>
	<path id="Shape 1" fill-rule="evenodd" class="s1" d="m647 417.5c2.6-1 5.5-0.5 7.4 1.2l31.9 28.6 46.4-9.4c2.7-0.6 5.4 0.3 7 2.2 1.5 1.9 1.6 4.4 0.3 6.7l-22.9 38.4 20.7 36.4c1.2 2.1 0.9 4.7-0.8 6.8-1.7 2.1-4.5 3.2-7.2 2.9l-46-4.8-33.6 31.7c-2 1.9-4.9 2.7-7.5 2.1-2.6-0.7-4.4-2.6-4.8-5l-5.5-41.4-41.6-16.7c-2.4-0.9-3.9-3.1-3.8-5.5 0.1-2.4 1.7-4.7 4.2-6l42.6-20.7 8-42.1c0.5-2.4 2.5-4.5 5.2-5.4zm6.6 19.7l-6.1 32.2c-0.4 2.1-1.9 4-4.1 5.1l-32.9 16 32.2 12.8c2 0.9 3.4 2.6 3.7 4.6l4.2 31.9 25.8-24.4c1.8-1.6 4.3-2.4 6.6-2.2l35.3 3.7-16-27.9c-1-1.8-0.9-4 0.2-5.9l17.8-29.7-35.8 7.2c-2.4 0.5-4.8-0.1-6.4-1.5z"/>
	<path id="Shape 2" class="s2" d="m248.6 123.6c-1.6-2.4-4.6-3.8-7.8-3.6-3.2 0.3-5.9 2.1-7.2 4.7l-14.3 31.7-36.8 7.7c-3.1 0.6-5.5 2.7-6.3 5.4-0.7 2.8 0.3 5.6 2.7 7.4l28.7 21.6-3.8 34c-0.3 2.8 1.2 5.5 3.9 6.9 2.6 1.5 6.1 1.4 8.7-0.1l32.1-18.2 34.3 13.2c2.9 1.1 6.3 0.6 8.7-1.2 2.5-1.9 3.6-4.7 2.8-7.5l-8.9-32.9 25.2-25.8c2.1-2.1 2.6-5.1 1.5-7.6-1.2-2.6-3.9-4.3-7.1-4.5l-37.5-2.1z"/>
	<path id="Shape 3" class="s2" d="m401 396.3c-0.4-1.3-1.7-2.4-3.4-3-1.7-0.5-3.5-0.4-4.5 0.5l-12.9 9.7-20.4-4.3c-1.7-0.4-3.3 0-4.2 0.9-0.8 0.9-0.8 2.3 0.1 3.4l11.2 14.4-7.7 12.7c-0.7 1.1-0.4 2.5 0.8 3.6 1.1 1.1 2.9 1.7 4.6 1.7l19.7-0.9 15.6 12.1c1.3 1 3.1 1.5 4.7 1.3 1.6-0.2 2.6-1.2 2.7-2.4l1-14.9 17.5-5.2c1.4-0.4 2.2-1.5 2.1-2.7-0.2-1.3-1.3-2.5-2.9-3.2l-19.2-8.4z"/>
</svg>